<?xml version="1.0" encoding="utf-8"?>
<!-- Svg Vector Icons : http://www.onlinewebfonts.com/icon -->
<!DOCTYPE svg PUBLIC "-//W3C//DTD SVG 1.1//EN" "http://www.w3.org/Graphics/SVG/1.1/DTD/svg11.dtd">
<svg version="1.1" xmlns="http://www.w3.org/2000/svg" xmlns:xlink="http://www.w3.org/1999/xlink" x="0px" y="0px" viewBox="0 0 1000 1000" enable-background="new 0 0 1000 1000" xml:space="preserve">
<metadata> Svg Vector Icons : http://www.onlinewebfonts.com/icon </metadata>
<g><path d="M971.2,545.5c-12.4,12.4-28.8,18.6-45.1,18.6c-7.4,0-14.6-1.4-21.6-4v344.4c0,47-38.1,85.2-85.2,85.2h-149H649h-42.6c-23.5,0-42.6-19.1-42.6-42.6v-21.3v-21.3v-149c0-11.8-9.5-21.3-21.3-21.3h-85.2c-11.7,0-21.3,9.5-21.3,21.3v149v21.3v21.3c0,23.5-19.1,42.6-42.6,42.6H351h-21.3h-149c-47,0-85.2-38.1-85.2-85.2V559c-22.9,8.2-49.4,3.1-67.5-15.4c-24.6-25.3-24-65.7,1.3-90.3l87.4-85.2V180.8c0-23.5,19.1-42.6,42.6-42.6h85.2c23.5,0,42.6,19.1,42.6,42.6V202L465.4,28.3c25.1-24.3,65-24,89.7,0.7l416.3,426.2C996.3,480.2,996.2,520.6,971.2,545.5z M180.7,947.2h149H351h21.3c11.8,0,21.3-9.5,21.3-21.3v-21.3V734.3c0-23.5,19.1-42.6,42.6-42.6h127.7c23.5,0,42.6,19.1,42.6,42.6v170.3v21.3c0,11.8,9.5,21.3,21.3,21.3H649h21.3h149c23.5,0,42.6-19.1,42.6-42.6V525.9L509.2,163.9L138.1,525.6v379C138.1,928.1,157.2,947.2,180.7,947.2z M244.5,202.1c0-11.8-9.5-21.3-21.3-21.3h-42.6c-11.8,0-21.3,9.5-21.3,21.3v124.5l85.2-83V202.1z M941.2,485.3L524.9,59.1c-5.4-5.4-11.8-6.3-15.1-6.3c-5.6,0-10.8,2.1-14.8,6l-436,425c-8.4,8.2-8.6,21.7-0.4,30.1c5.4,5.6,11.9,6.4,15.3,6.4c5.6,0,10.8-2.1,14.8-6l6.8-6.7v-7.6h7.8L509.6,104l386.6,396.1h8.3v8.5l6.6,6.7c5.4,5.4,11.8,6.3,15.1,6.3c3.3,0,9.6-0.8,15-6.2c5.4-5.4,6.3-11.8,6.3-15.1C947.4,497,946.6,490.7,941.2,485.3z M500,308.5c47,0,85.2,38.1,85.2,85.2c0,47-38.1,85.2-85.2,85.2c-47,0-85.2-38.1-85.2-85.2C414.9,346.6,453,308.5,500,308.5z M500,436.2c23.5,0,42.6-19.1,42.6-42.6c0-23.5-19.1-42.6-42.6-42.6c-23.5,0-42.6,19.1-42.6,42.6C457.4,417.2,476.5,436.2,500,436.2z"/></g>
</svg>